<?xml version="1.0" encoding="utf-8"?>
<!-- Generator: Adobe Illustrator 19.0.0, SVG Export Plug-In . SVG Version: 6.00 Build 0)  -->
<svg version="1.1" id="Layer_3" xmlns="http://www.w3.org/2000/svg" xmlns:xlink="http://www.w3.org/1999/xlink" x="0px" y="0px"
	 viewBox="-356 453.4 120 120" style="enable-background:new -356 453.4 120 120;" xml:space="preserve">
<style type="text/css">
	.st0{fill:none;stroke:#CFD1D2;stroke-width:2;stroke-miterlimit:10;}
</style>
<g>
	<path class="st0" d="M-314.7,555c-8.3-0.4-16-3.2-22.7-8.1c-0.5-0.4-1.1-0.4-1.6-0.2l-14.9,2.2c5-14.9,4.7-15.5,4.3-16.4
		c-3.4-6.5-5-13.9-4.7-21.1c1.1-23,20.7-40.7,43.5-39.8c14.2,0.7,27,8.6,34.2,20.9c-11.5,3.2-21.8,15.6-22.4,28.3
		c-0.7,16.6,12,25.3,11.7,25.5C-294.9,552.7-304.7,555.5-314.7,555z"/>
	<path class="st0" d="M-249.6,547.6c-0.5-0.2-1.3-0.2-1.8,0.2c-5,3.4-10.8,5-16.9,5c-16.9,0-30.6-13.7-30.6-30.6
		c0-16.9,13.7-30.6,30.6-30.6s30.6,13.7,30.6,30.6c0,5.4-1.4,10.6-4.1,15.5c-0.5,0.7-0.7,1.1,3.2,12.8L-249.6,547.6z"/>
</g>
</svg>
